<?xml version="1.0" encoding="UTF-8"?>
<svg width="76px" height="76px" viewBox="0 0 76 76" version="1.1" xmlns="http://www.w3.org/2000/svg" xmlns:xlink="http://www.w3.org/1999/xlink">
    <g id="icon-76" stroke="none" stroke-width="1" fill="none" fill-rule="evenodd">
        <path d="M46.9445488,62.9465758 C36.1295578,64.8998065 23.1014214,59.54976 14.0392236,48.3588778 C10.7295985,44.2718312 8.29198009,39.829341 6.73346954,35.3406364 C15.8945781,45.2086963 28.2612787,49.6633223 38.4659541,47.4341259 C26.3243486,30.1502402 20.0099952,13.2457018 21.0799741,4.19723719 C25.6028045,13.6224128 33.6749726,23.9565042 45.2964784,35.1995114 C47.1799894,37.0216787 48.819447,38.7864367 50.2323218,40.4799255 C56.2768568,33.4317856 57.4334873,22.6937817 53.7927399,12.2079737 C54.4840521,12.9526338 55.1571102,13.7281204 55.8096077,14.5338877 C65.7852311,26.8527565 67.8387186,42.4008122 61.7756161,52.7103775 C63.8645771,56.1037279 64.5988363,60.3884914 63.4625229,64.6292706 C62.7018947,67.4679737 61.2055509,69.9046682 59.247766,71.7737489 C58.8707773,70.2519388 58.2009408,68.8571004 57.2197212,67.6453951 C54.1590848,63.8658239 52.0536286,61.983377 46.944901,62.9470744 L46.9445488,62.9465758 Z" id="Path" fill="#858A96"></path>
    </g>
</svg>