<?xml version="1.0" encoding="UTF-8"?>
<svg width="110px" height="110px" viewBox="0 0 110 110" version="1.1" xmlns="http://www.w3.org/2000/svg" xmlns:xlink="http://www.w3.org/1999/xlink">
    <!-- Generator: Sketch 52.6 (67491) - http://www.bohemiancoding.com/sketch -->
    <title>Artboard</title>
    <desc>Created with Sketch.</desc>
    <defs>
        <path d="M65.2920078,95.1145719 C47.8068046,98.2724698 26.7434849,89.6227492 12.092121,71.5298215 C6.7412643,64.9220638 2.80022971,57.7396404 0.280498199,50.4824997 C15.0917767,66.4367462 35.0857159,73.6387903 51.5841877,70.0347233 C31.9541723,42.0908948 21.7454026,14.7603784 23.4752977,0.131217599 C30.7876115,15.3694282 43.8383389,32.077134 62.6274798,50.254335 C65.6726579,53.2003353 68.3232609,56.0535185 70.607535,58.791477 C80.3800741,47.3963534 82.2500636,30.0356196 76.3638628,13.0826251 C77.4815461,14.2865588 78.569717,15.5403316 79.6246463,16.8430608 C95.7527966,36.7596678 99.0727852,61.8970824 89.2702271,78.5651354 C92.6475676,84.0513556 93.8346856,90.9787732 91.997544,97.8350791 C90.7677936,102.42457 88.3485705,106.364111 85.1833098,109.385958 C84.573811,106.925562 83.4908487,104.670449 81.904456,102.711417 C76.9561532,96.600772 73.552144,93.5573144 65.2925772,95.1153781 Z" id="path-1"></path>
    </defs>
    <g id="Artboard" stroke="none" stroke-width="1" fill="none" fill-rule="evenodd" opacity="0.900000036">
        <g id="Group" transform="translate(4.634000, 0.000000)">
            <mask id="mask-2" fill="white">
                <use xlink:href="#path-1"></use>
            </mask>
            <use id="Mask" fill="#838383" transform="translate(47.529555, 54.758588) rotate(-360.000000) translate(-47.529555, -54.758588) " xlink:href="#path-1"></use>
        </g>
    </g>
</svg>